<svg width="159" height="155" viewBox="0 0 159 155" fill="none" xmlns="http://www.w3.org/2000/svg">
  <path d="M77.6337 112.149C67.465 112.2 59.044 110.437 51.9637 104.775C49.5781 102.868 47.7417 100.179 45.9811 97.6218C44.9695 96.1517 45.1096 94.2009 46.9291 93.2048C48.473 92.3597 50.0372 92.8371 51.1153 94.2923C57.5773 103.015 66.9124 104.934 76.8956 104.865C80.6802 104.84 84.4851 103.972 88.2331 103.245C94.8312 101.966 100.133 98.6679 103.732 92.8275C104.588 91.5023 105.59 90.2771 106.719 89.1745C108.149 87.72 109.872 86.7874 111.822 88.1932C113.555 89.4425 113.521 91.1815 112.803 93.0477C110.736 98.5894 106.816 103.246 101.708 106.228C93.9015 110.867 85.2177 111.916 77.6337 112.149Z" fill="black"/>
  <path d="M57.658 46.9225L53.2952 45.9549C43.5144 43.788 35.0399 45.7112 28.3552 53.6812C27.6597 54.51 26.1551 54.6602 25.0263 55.1254C24.6992 53.8389 23.6937 52.1515 24.1724 51.3335C25.6208 48.8687 27.2751 46.2549 29.509 44.5688C38.7399 37.6118 48.9858 37.2435 59.6062 40.8445C61.3078 41.4221 62.6486 42.6098 62.1827 44.6331C61.7256 46.6307 60.1181 47.127 57.658 46.9225Z" fill="black"/>
  <path d="M50.8751 56.8652C56.3688 56.9803 60.9158 59.3957 64.6076 63.5331C65.2438 64.1678 65.6721 64.9809 65.8359 65.8645C65.9213 67.0204 65.9003 68.6042 65.2123 69.2671C64.6469 69.8089 62.91 69.5834 61.9329 69.1534C60.4127 68.4844 59.099 67.3494 57.6933 66.4184C50.0693 61.3682 43.2578 63.074 38.7196 70.981C38.1217 72.0225 36.5087 73.2345 35.4998 73.1262C33.5638 72.9176 33.5442 70.9594 33.7256 69.3491C34.4224 63.1627 40.6407 57.8153 48.0202 57.0251C48.9154 56.9276 49.8201 56.9201 50.8751 56.8652Z" fill="black"/>
  <path d="M111.27 35.8912C115.93 35.7287 120.291 37.1101 124.411 39.3548C125.403 39.8832 126.334 40.5189 127.187 41.2507C128.538 42.4364 129.46 43.9391 128.447 45.7199C127.344 47.6573 125.468 47.5062 123.669 46.9056C122.721 46.5478 121.819 46.078 120.982 45.506C113.616 40.8581 106.326 41.1356 99.0749 45.7707C97.8842 46.6191 96.6222 47.3626 95.3032 47.9931C94.5888 48.2897 93.2176 48.3093 92.8654 47.8732C92.5999 47.473 92.4193 47.0228 92.3348 46.55C92.2502 46.0773 92.2635 45.5922 92.3738 45.1248C92.7337 44.1831 93.3359 43.353 94.1195 42.7187C98.9164 38.2455 104.434 35.5222 111.27 35.8912Z" fill="black"/>
  <path d="M112.689 54.1131C116.508 53.9818 120.401 55.5399 123.687 58.5566C124.77 59.5384 125.705 60.6722 126.463 61.9227C127.873 64.3103 127.6 66.9491 126.043 68.1003C124.412 69.307 122.458 68.6292 120.308 66.1108C114.46 59.2595 108.032 58.839 101.18 64.8609C100.926 65.0836 100.689 65.3259 100.435 65.5507C99.2395 66.6193 97.9008 67.9458 96.3399 66.5665C94.6471 65.07 95.4725 63.3081 96.5675 61.7391C99.8211 57.0811 106.023 54.0116 112.689 54.1131Z" fill="black"/>
  <path d="M2.80298 55.9748C-4.20684 83.5259 1.93151 107.831 21.0602 128.223C21.5579 128.75 22.0658 129.277 22.5737 129.785C32.8487 140.06 45.6474 146.404 55.7891 150.819C60.1411 152.719 82.4754 155.028 88.5176 154.128C124.429 148.765 148.061 128.511 156.292 94.625C157.864 87.9873 158.647 81.1873 158.624 74.3661C158.662 58.2974 151.897 39.6163 137.944 25.6251C136.508 24.4373 135.076 23.2069 133.692 22.0145C130.69 19.4339 127.587 16.762 124.341 14.4834C99.5429 -2.97008 73.7775 -3.06774 47.7635 6.1875C24.211 14.5618 9.08488 31.3158 2.80298 55.9748ZM47.8644 14.4373C70.6897 4.95246 93.5915 3.27855 115.928 17.4844C120.012 20.0847 130.9 28.8849 132.615 30.2067L132.724 30.2879L132.816 30.3889C141.53 39.6299 151.505 56.5268 151.288 73.8963C151.216 81.3232 150.21 88.7114 148.296 95.8878C142.622 116.511 129.057 131.541 106.826 141.821C84.2259 152.642 51.8149 141.702 43.1914 136.01C33.6598 129.493 25.3197 121.386 18.5358 112.043C7.89649 96.9802 5.50888 75.3276 11.226 55.5339C13.9018 46.3948 18.5776 37.9656 24.9147 30.8574C31.2517 23.7493 39.0911 18.1403 47.8644 14.4373Z" fill="black"/>
  </svg>
  